<svg width="32" height="32" viewBox="0 0 32 32" fill="none" xmlns="http://www.w3.org/2000/svg">
<circle cx="15.9998" cy="16" r="16" fill="white"/>
<circle cx="15.9998" cy="16" r="16" fill="#6A6D76" fill-opacity="0.06"/>
<path d="M15.9998 17.3334C18.9454 17.3334 21.3332 14.9456 21.3332 12.0001C21.3332 9.05456 18.9454 6.66675 15.9998 6.66675C13.0543 6.66675 10.6665 9.05456 10.6665 12.0001C10.6665 14.9456 13.0543 17.3334 15.9998 17.3334Z" fill="#6A6D76" fill-opacity="0.16"/>
<path d="M15.9998 19.3334C10.7863 19.3334 6.30843 22.4832 4.36572 26.9832C7.28239 30.0717 11.4165 32.0001 15.9998 32.0001C20.5832 32.0001 24.7173 30.0717 27.634 26.9832C25.6912 22.4832 21.2134 19.3334 15.9998 19.3334Z" fill="#6A6D76" fill-opacity="0.16"/>
<circle cx="15.9998" cy="16" r="15.5" stroke="#6A6D76" stroke-opacity="0.08"/>
</svg>
