<svg width="24" height="24" viewBox="0 0 24 24" fill="none" xmlns="http://www.w3.org/2000/svg">
<mask id="mask0_42_465" style="mask-type:alpha" maskUnits="userSpaceOnUse" x="0" y="0" width="24" height="24">
<g clip-path="url(#clip0_42_465)">
<path fill-rule="evenodd" clip-rule="evenodd" d="M6.38184 8.59045V19.9177H17.6176V8.59045H6.38184ZM5.38184 6.59045C4.82955 6.59045 4.38184 7.03817 4.38184 7.59045V20.9177C4.38184 21.47 4.82955 21.9177 5.38184 21.9177H18.6176C19.1699 21.9177 19.6176 21.47 19.6176 20.9177V7.59045C19.6176 7.03817 19.1699 6.59045 18.6176 6.59045H5.38184Z" fill="#121213"/>
<path fill-rule="evenodd" clip-rule="evenodd" d="M11.9997 4.45605C10.8549 4.45605 9.92682 5.38412 9.92682 6.52896V9.73602C9.92682 10.2883 9.4791 10.736 8.92682 10.736C8.37453 10.736 7.92682 10.2883 7.92682 9.73602V6.52896C7.92682 4.27956 9.75032 2.45605 11.9997 2.45605C14.2491 2.45605 16.0726 4.27956 16.0726 6.52896V9.73602C16.0726 10.2883 15.6249 10.736 15.0726 10.736C14.5203 10.736 14.0726 10.2883 14.0726 9.73602V6.52896C14.0726 5.38412 13.1446 4.45605 11.9997 4.45605Z" fill="#121213"/>
</g>
</mask>
<g mask="url(#mask0_42_465)">
<rect width="24" height="24" fill="#121213"/>
</g>
<defs>
<clipPath id="clip0_42_465">
<rect width="24.0001" height="24" fill="white"/>
</clipPath>
</defs>
</svg>
