<svg width="24" height="24" viewBox="0 0 24 24" fill="none" xmlns="http://www.w3.org/2000/svg">
<mask id="mask0_42_6834" style="mask-type:alpha" maskUnits="userSpaceOnUse" x="0" y="0" width="24" height="24">
<g clip-path="url(#clip0_42_6834)">
<path fill-rule="evenodd" clip-rule="evenodd" d="M6.38232 8.59045V19.9177H17.6181V8.59045H6.38232ZM5.38232 6.59045C4.83004 6.59045 4.38232 7.03817 4.38232 7.59045V20.9177C4.38232 21.47 4.83004 21.9177 5.38232 21.9177H18.6181C19.1704 21.9177 19.6181 21.47 19.6181 20.9177V7.59045C19.6181 7.03817 19.1704 6.59045 18.6181 6.59045H5.38232Z" fill="#F8F9FD"/>
<path fill-rule="evenodd" clip-rule="evenodd" d="M12.0002 4.45605C10.8554 4.45605 9.92731 5.38412 9.92731 6.52896V9.73602C9.92731 10.2883 9.47959 10.736 8.92731 10.736C8.37502 10.736 7.92731 10.2883 7.92731 9.73602V6.52896C7.92731 4.27956 9.75081 2.45605 12.0002 2.45605C14.2496 2.45605 16.0731 4.27956 16.0731 6.52896V9.73602C16.0731 10.2883 15.6254 10.736 15.0731 10.736C14.5208 10.736 14.0731 10.2883 14.0731 9.73602V6.52896C14.0731 5.38412 13.145 4.45605 12.0002 4.45605Z" fill="#F8F9FD"/>
</g>
</mask>
<g mask="url(#mask0_42_6834)">
<rect width="24" height="24" fill="#F8F9FD"/>
</g>
<defs>
<clipPath id="clip0_42_6834">
<rect width="24.0001" height="24" fill="white"/>
</clipPath>
</defs>
</svg>
