<svg width="99" height="40" viewBox="0 0 99 40" fill="none" xmlns="http://www.w3.org/2000/svg">
<path d="M16.235 11.1426H12.26C11.9783 11.1426 11.75 11.3709 11.75 11.6526V28.4901C11.75 28.7717 11.9783 29.0001 12.26 29.0001H16.235C16.5167 29.0001 16.745 28.7717 16.745 28.4901V11.6526C16.745 11.3709 16.5167 11.1426 16.235 11.1426Z" fill="#0066FF"/>
<path d="M24.1774 22.4901C23.2249 21.9576 22.5799 21.0051 22.4524 19.7076C22.4299 19.4451 22.2124 19.2351 21.9424 19.2351H17.9674C17.6749 19.2351 17.4424 19.4826 17.4499 19.7751C17.5849 22.6026 18.7849 24.0126 21.1624 25.4151C22.3624 26.1201 22.7074 27.2301 22.7674 28.5126C22.7824 28.7901 23.0074 29.0001 23.2774 29.0001H27.5224C27.8149 29.0001 28.0474 28.7526 28.0399 28.4601C27.9274 25.6776 26.9224 24.0201 24.1624 22.4826L24.1774 22.4901Z" fill="#0066FF"/>
<path d="M28.0776 14.69L23.1951 11.0825C22.9176 10.88 22.5276 11.0825 22.5276 11.42V18.635C22.5276 18.98 22.9176 19.175 23.1951 18.9725L28.0776 15.365C28.3026 15.2 28.3026 14.855 28.0776 14.69Z" fill="#0066FF"/>
<path d="M57.2947 24.3927V18.6362H56.3186C56.0516 18.6362 55.843 18.4193 55.843 18.1606V16.8758C55.843 16.6089 56.0599 16.4003 56.3186 16.4003H57.2947V14.4231C57.2947 14.1561 57.5116 13.9475 57.7702 13.9475H59.9393C60.2063 13.9475 60.4149 14.1644 60.4149 14.4231V16.4003H62.3254C62.5924 16.4003 62.8009 16.6172 62.8009 16.8758V18.1606C62.8009 18.4276 62.584 18.6362 62.3254 18.6362H60.4149V24.1091C60.4149 25.0184 60.8737 25.4523 61.6747 25.4523C61.9083 25.4523 62.1168 25.4356 62.3087 25.4022C62.6007 25.3522 62.8677 25.5691 62.8677 25.8694V27.3127C62.8677 27.5296 62.7259 27.7132 62.5173 27.7716C62.1168 27.88 61.5996 27.9718 60.9488 27.9718C58.5628 27.9718 57.278 26.7538 57.278 24.3844L57.2947 24.3927Z" fill="#121213"/>
<path d="M63.9844 22.1985V22.0233C63.9844 18.461 66.5707 16.1333 69.9829 16.1333C73.3951 16.1333 75.9563 18.4109 75.9563 21.9566V22.1318C75.9563 25.7192 73.3701 27.9968 69.9578 27.9968C66.5456 27.9968 63.9844 25.7359 63.9844 22.1985ZM72.761 22.1568V22.0067C72.761 19.8375 71.7432 18.5277 69.9829 18.5277C68.2225 18.5277 67.2047 19.7875 67.2047 21.9566V22.1318C67.2047 24.3009 68.2058 25.6108 69.9829 25.6108C71.7599 25.6108 72.761 24.3093 72.761 22.1568Z" fill="#121213"/>
<path d="M78.2082 16.4003H80.4024C80.6693 16.4003 80.8779 16.6172 80.8779 16.8758V18.5694C81.5203 17.2012 82.4881 16.417 84.0148 16.2501C84.2985 16.2167 84.5488 16.442 84.5488 16.7257V18.6779C84.5488 18.9282 84.3485 19.1451 84.0982 19.1534C82.0543 19.2285 80.8779 20.0294 80.8779 22.0567V27.271C80.8779 27.538 80.661 27.7465 80.4024 27.7465H78.2082C77.9412 27.7465 77.7327 27.5296 77.7327 27.271V16.8758C77.7327 16.6089 77.9496 16.4003 78.2082 16.4003Z" fill="#121213"/>
<path d="M85.3994 22.2235V22.0483C85.3994 18.4609 87.944 16.1416 91.2394 16.1416C94.1761 16.1416 96.779 17.8602 96.779 21.9232V22.3153C96.779 22.5823 96.5621 22.7908 96.3035 22.7908H88.5947C88.6781 24.6847 89.7043 25.7692 91.4146 25.7692C92.7077 25.7692 93.4169 25.277 93.7005 24.4928C93.7673 24.3092 93.9425 24.1841 94.1427 24.1841H96.17C96.487 24.1841 96.7206 24.4844 96.6372 24.7931C96.0532 26.8621 94.1761 28.0051 91.3395 28.0051C87.9106 28.0051 85.4078 25.8527 85.4078 22.2235H85.3994ZM93.7172 20.8553C93.6088 19.1367 92.7411 18.3107 91.2394 18.3107C89.8295 18.3107 88.87 19.2451 88.6364 20.8553H93.7172Z" fill="#121213"/>
<path d="M42.7097 22.8909H45.1374C45.3627 22.8909 45.5629 23.0494 45.6046 23.2663C45.8216 24.4843 46.5057 25.4354 48.5914 25.4354C50.1348 25.4354 51.161 24.5845 51.161 23.3664C51.161 22.1483 50.5102 21.6895 48.2243 21.3474C44.2448 20.8218 42.6096 19.6288 42.6096 16.6254C42.6096 13.9724 44.8288 11.9951 48.266 11.9951C51.7032 11.9951 53.5637 13.38 54.0226 16.1081C54.0726 16.3918 53.839 16.6504 53.547 16.6504H51.2361C51.0108 16.6504 50.8273 16.4919 50.7689 16.2666C50.4685 15.1153 49.6593 14.5814 48.2577 14.5814C46.7142 14.5814 45.93 15.2989 45.93 16.3417C45.93 17.4513 46.4306 17.9769 48.825 18.319C52.5876 18.7945 54.5231 19.8207 54.5231 23.041C54.5231 25.8025 52.2622 27.9967 48.5914 27.9967C44.5785 27.9967 42.6096 26.2196 42.2258 23.4165C42.1841 23.1328 42.4177 22.8909 42.7013 22.8909H42.7097Z" fill="#121213"/>
</svg>
