<svg width="24" height="24" viewBox="0 0 24 24" fill="none" xmlns="http://www.w3.org/2000/svg">
<path fill-rule="evenodd" clip-rule="evenodd" d="M22.9602 4.91836L16.0936 0.107858C15.7034 -0.16217 15.1549 0.107858 15.1549 0.557905V10.1789C15.1549 10.639 15.7034 10.899 16.0936 10.629L22.9602 5.81846C23.2766 5.59843 23.2766 5.13839 22.9602 4.91836ZM17.4772 15.3175C16.1376 14.6074 15.2305 13.3373 15.0512 11.6071C15.0196 11.2571 14.7137 10.977 14.334 10.977H8.74367C8.3323 10.977 8.00533 11.3071 8.01587 11.6971C8.20573 15.4675 9.89337 17.3477 13.237 19.2179C14.9246 20.158 15.4098 21.6381 15.4942 23.3483C15.5153 23.7184 15.8317 23.9984 16.2115 23.9984H22.1815C22.5928 23.9984 22.9198 23.6684 22.9093 23.2783C22.7511 19.5679 21.3377 17.3577 17.4561 15.3075L17.4772 15.3175ZM0.717245 0.187622H6.30754C6.70367 0.187622 7.02479 0.4921 7.02479 0.867693V23.3201C7.02479 23.6956 6.70367 24.0001 6.30754 24.0001H0.717245C0.321122 24.0001 0 23.6956 0 23.3201V0.867693C0 0.4921 0.321122 0.187622 0.717245 0.187622Z" fill="#DBDEE8"/>
</svg>
